<svg width="41" height="42" viewBox="0 0 41 42" fill="none" xmlns="http://www.w3.org/2000/svg">
<path d="M10 1.5C5.02944 1.5 1 5.52944 1 10.5V31.5C1 36.4706 5.02944 40.5 10 40.5H31C35.9706 40.5 40 36.4706 40 31.5V10.5C40 5.52944 35.9706 1.5 31 1.5H10Z" stroke="#9A9A9A" stroke-width="2"/>
<mask id="mask0_6_42" style="mask-type:alpha" maskUnits="userSpaceOnUse" x="2" y="2" width="37" height="38">
<rect x="2" y="2.5" width="37" height="37" fill="#D9D9D9"/>
</mask>
<g mask="url(#mask0_6_42)">
<path d="M6.62501 34.875C6.1882 34.875 5.82206 34.7273 5.52657 34.4318C5.23109 34.1363 5.08334 33.7701 5.08334 33.3333C5.08334 32.8965 5.23109 32.5304 5.52657 32.2349C5.82206 31.9394 6.1882 31.7917 6.62501 31.7917H34.375C34.8118 31.7917 35.178 31.9394 35.4734 32.2349C35.7689 32.5304 35.9167 32.8965 35.9167 33.3333C35.9167 33.7701 35.7689 34.1363 35.4734 34.4318C35.178 34.7273 34.8118 34.875 34.375 34.875H6.62501ZM8.93751 30.25C8.29515 30.25 7.74914 30.0252 7.29949 29.5755C6.84984 29.1259 6.62501 28.5799 6.62501 27.9375V21.7708C6.62501 21.1285 6.84984 20.5825 7.29949 20.1328C7.74914 19.6832 8.29515 19.4583 8.93751 19.4583C9.57987 19.4583 10.1259 19.6832 10.5755 20.1328C11.0252 20.5825 11.25 21.1285 11.25 21.7708V27.9375C11.25 28.5799 11.0252 29.1259 10.5755 29.5755C10.1259 30.0252 9.57987 30.25 8.93751 30.25ZM16.6458 30.25C16.0035 30.25 15.4575 30.0252 15.0078 29.5755C14.5582 29.1259 14.3333 28.5799 14.3333 27.9375V14.0625C14.3333 13.4201 14.5582 12.8741 15.0078 12.4245C15.4575 11.9748 16.0035 11.75 16.6458 11.75C17.2882 11.75 17.8342 11.9748 18.2839 12.4245C18.7335 12.8741 18.9583 13.4201 18.9583 14.0625V27.9375C18.9583 28.5799 18.7335 29.1259 18.2839 29.5755C17.8342 30.0252 17.2882 30.25 16.6458 30.25ZM24.3542 30.25C23.7118 30.25 23.1658 30.0252 22.7162 29.5755C22.2665 29.1259 22.0417 28.5799 22.0417 27.9375V18.6875C22.0417 18.0451 22.2665 17.4991 22.7162 17.0495C23.1658 16.5998 23.7118 16.375 24.3542 16.375C24.9965 16.375 25.5425 16.5998 25.9922 17.0495C26.4419 17.4991 26.6667 18.0451 26.6667 18.6875V27.9375C26.6667 28.5799 26.4419 29.1259 25.9922 29.5755C25.5425 30.0252 24.9965 30.25 24.3542 30.25ZM32.0625 30.25C31.4201 30.25 30.8741 30.0252 30.4245 29.5755C29.9748 29.1259 29.75 28.5799 29.75 27.9375V9.4375C29.75 8.79514 29.9748 8.24913 30.4245 7.79948C30.8741 7.34983 31.4201 7.125 32.0625 7.125C32.7049 7.125 33.2509 7.34983 33.7005 7.79948C34.1502 8.24913 34.375 8.79514 34.375 9.4375V27.9375C34.375 28.5799 34.1502 29.1259 33.7005 29.5755C33.2509 30.0252 32.7049 30.25 32.0625 30.25Z" fill="#FF7629"/>
</g>
</svg>
